<svg xmlns="http://www.w3.org/2000/svg" xmlns:xlink="http://www.w3.org/1999/xlink" width="114" zoomAndPan="magnify" viewBox="0 0 85.5 30.000001" height="40" preserveAspectRatio="xMidYMid meet" version="1.0"><defs><g/></defs><g fill="#ffffff" fill-opacity="1"><g transform="translate(2.745791, 18.532586)"><g><path d="M 0.8125 -11.171875 L 4.046875 -11.171875 C 5.597656 -11.171875 6.925781 -10.640625 8.03125 -9.578125 C 9.132812 -8.523438 9.6875 -7.195312 9.6875 -5.59375 C 9.6875 -3.988281 9.132812 -2.65625 8.03125 -1.59375 C 6.9375 -0.53125 5.609375 0 4.046875 0 L 0.8125 0 Z M 3.359375 -2.28125 L 3.75 -2.28125 C 4.675781 -2.28125 5.4375 -2.59375 6.03125 -3.21875 C 6.625 -3.84375 6.925781 -4.628906 6.9375 -5.578125 C 6.9375 -6.523438 6.640625 -7.316406 6.046875 -7.953125 C 5.453125 -8.585938 4.6875 -8.90625 3.75 -8.90625 L 3.359375 -8.90625 Z M 3.359375 -2.28125 "/></g></g></g><g fill="#ffffff" fill-opacity="1"><g transform="translate(11.465382, 18.532586)"><g><path d="M 1.46875 -0.828125 C 0.695312 -1.515625 0.3125 -2.394531 0.3125 -3.46875 C 0.3125 -4.539062 0.710938 -5.421875 1.515625 -6.109375 C 2.316406 -6.804688 3.3125 -7.15625 4.5 -7.15625 C 5.664062 -7.15625 6.644531 -6.804688 7.4375 -6.109375 C 8.238281 -5.410156 8.640625 -4.53125 8.640625 -3.46875 C 8.640625 -2.40625 8.25 -1.523438 7.46875 -0.828125 C 6.6875 -0.140625 5.695312 0.203125 4.5 0.203125 C 3.25 0.203125 2.238281 -0.140625 1.46875 -0.828125 Z M 3.328125 -4.640625 C 3.015625 -4.335938 2.859375 -3.945312 2.859375 -3.46875 C 2.859375 -2.988281 3.003906 -2.597656 3.296875 -2.296875 C 3.597656 -1.992188 3.992188 -1.84375 4.484375 -1.84375 C 4.953125 -1.84375 5.335938 -1.992188 5.640625 -2.296875 C 5.941406 -2.609375 6.09375 -3 6.09375 -3.46875 C 6.09375 -3.945312 5.9375 -4.335938 5.625 -4.640625 C 5.3125 -4.953125 4.929688 -5.109375 4.484375 -5.109375 C 4.023438 -5.109375 3.640625 -4.953125 3.328125 -4.640625 Z M 3.328125 -4.640625 "/></g></g></g><g fill="#ffffff" fill-opacity="1"><g transform="translate(19.142336, 18.532586)"><g><path d="M 0.8125 0 L 0.8125 -6.953125 L 3.203125 -6.953125 L 3.203125 -6.21875 L 3.234375 -6.21875 C 3.859375 -6.84375 4.523438 -7.15625 5.234375 -7.15625 C 5.734375 -7.15625 6.203125 -7.050781 6.640625 -6.84375 C 7.085938 -6.632812 7.425781 -6.3125 7.65625 -5.875 C 8.351562 -6.726562 9.117188 -7.15625 9.953125 -7.15625 C 10.691406 -7.15625 11.328125 -6.945312 11.859375 -6.53125 C 12.398438 -6.113281 12.671875 -5.460938 12.671875 -4.578125 L 12.671875 0 L 10.265625 0 L 10.265625 -3.921875 C 10.265625 -4.296875 10.160156 -4.609375 9.953125 -4.859375 C 9.753906 -5.109375 9.453125 -5.234375 9.046875 -5.234375 C 8.691406 -5.234375 8.421875 -5.125 8.234375 -4.90625 C 8.054688 -4.695312 7.957031 -4.441406 7.9375 -4.140625 L 7.9375 0 L 5.546875 0 L 5.546875 -3.921875 C 5.546875 -4.296875 5.441406 -4.609375 5.234375 -4.859375 C 5.035156 -5.109375 4.734375 -5.234375 4.328125 -5.234375 C 3.953125 -5.234375 3.671875 -5.113281 3.484375 -4.875 C 3.296875 -4.644531 3.203125 -4.375 3.203125 -4.0625 L 3.203125 0 Z M 0.8125 0 "/></g></g></g><g fill="#ffffff" fill-opacity="1"><g transform="translate(31.20651, 18.532586)"><g/></g></g><g fill="#ffffff" fill-opacity="1"><g transform="translate(33.629618, 18.532586)"><g><path d="M 3.359375 -6.9375 L 3.359375 0 L 0.8125 0 L 0.8125 -11.171875 L 3.359375 -11.171875 L 7.796875 -4.234375 L 7.828125 -4.234375 L 7.828125 -11.171875 L 10.375 -11.171875 L 10.375 0 L 7.828125 0 L 3.390625 -6.9375 Z M 3.359375 -6.9375 "/></g></g></g><g fill="#ffffff" fill-opacity="1"><g transform="translate(43.540806, 18.532586)"><g><path d="M 0.5 1.703125 L 2.46875 0.75 C 2.820312 1.34375 3.445312 1.640625 4.34375 1.640625 C 4.757812 1.640625 5.144531 1.503906 5.5 1.234375 C 5.863281 0.972656 6.046875 0.566406 6.046875 0.015625 L 6.046875 -0.5 C 5.617188 -0.03125 4.859375 0.203125 3.765625 0.203125 C 2.765625 0.203125 1.9375 -0.148438 1.28125 -0.859375 C 0.632812 -1.566406 0.3125 -2.4375 0.3125 -3.46875 C 0.3125 -4.5 0.632812 -5.367188 1.28125 -6.078125 C 1.9375 -6.796875 2.765625 -7.15625 3.765625 -7.15625 C 4.660156 -7.15625 5.40625 -6.878906 6 -6.328125 L 6.046875 -6.328125 L 6.046875 -6.953125 L 8.4375 -6.953125 L 8.4375 0.1875 C 8.4375 1.320312 8.0625 2.191406 7.3125 2.796875 C 6.5625 3.410156 5.570312 3.71875 4.34375 3.71875 C 2.363281 3.71875 1.082031 3.046875 0.5 1.703125 Z M 3.328125 -4.640625 C 3.015625 -4.335938 2.859375 -3.945312 2.859375 -3.46875 C 2.859375 -2.988281 3.003906 -2.597656 3.296875 -2.296875 C 3.597656 -1.992188 3.992188 -1.84375 4.484375 -1.84375 C 4.953125 -1.84375 5.335938 -1.992188 5.640625 -2.296875 C 5.941406 -2.609375 6.09375 -3 6.09375 -3.46875 C 6.09375 -3.945312 5.9375 -4.335938 5.625 -4.640625 C 5.3125 -4.953125 4.929688 -5.109375 4.484375 -5.109375 C 4.023438 -5.109375 3.640625 -4.953125 3.328125 -4.640625 Z M 3.328125 -4.640625 "/></g></g></g><g fill="#ffffff" fill-opacity="1"><g transform="translate(51.515651, 18.532586)"><g><path d="M 3.078125 -6.953125 L 3.078125 -3.640625 C 3.078125 -2.953125 3.179688 -2.460938 3.390625 -2.171875 C 3.597656 -1.890625 3.945312 -1.75 4.4375 -1.75 C 4.9375 -1.75 5.289062 -1.890625 5.5 -2.171875 C 5.707031 -2.460938 5.8125 -2.953125 5.8125 -3.640625 L 5.8125 -6.953125 L 8.203125 -6.953125 L 8.203125 -3.0625 C 8.203125 -1.90625 7.898438 -1.070312 7.296875 -0.5625 C 6.703125 -0.0507812 5.75 0.203125 4.4375 0.203125 C 3.132812 0.203125 2.179688 -0.0507812 1.578125 -0.5625 C 0.972656 -1.070312 0.671875 -1.90625 0.671875 -3.0625 L 0.671875 -6.953125 Z M 3.078125 -6.953125 "/></g></g></g><g fill="#ffffff" fill-opacity="1"><g transform="translate(59.124902, 18.532586)"><g><path d="M 6.078125 -6.953125 L 8.84375 -6.953125 L 3.390625 3.515625 L 0.625 3.515625 L 3.015625 -1.078125 L -0.265625 -6.953125 L 2.5 -6.953125 L 4.4375 -3.390625 Z M 6.078125 -6.953125 "/></g></g></g><g fill="#ffffff" fill-opacity="1"><g transform="translate(66.422703, 18.532586)"><g><path d="M 7.84375 -3.140625 L 2.796875 -3.140625 C 2.796875 -2.648438 2.953125 -2.285156 3.265625 -2.046875 C 3.585938 -1.816406 3.9375 -1.703125 4.3125 -1.703125 C 4.695312 -1.703125 5 -1.753906 5.21875 -1.859375 C 5.445312 -1.960938 5.707031 -2.171875 6 -2.484375 L 7.734375 -1.609375 C 7.015625 -0.398438 5.8125 0.203125 4.125 0.203125 C 3.082031 0.203125 2.1875 -0.15625 1.4375 -0.875 C 0.6875 -1.59375 0.3125 -2.457031 0.3125 -3.46875 C 0.3125 -4.476562 0.6875 -5.34375 1.4375 -6.0625 C 2.1875 -6.789062 3.082031 -7.15625 4.125 -7.15625 C 5.226562 -7.15625 6.125 -6.835938 6.8125 -6.203125 C 7.507812 -5.566406 7.859375 -4.65625 7.859375 -3.46875 C 7.859375 -3.300781 7.851562 -3.191406 7.84375 -3.140625 Z M 2.875 -4.46875 L 5.515625 -4.46875 C 5.460938 -4.832031 5.316406 -5.109375 5.078125 -5.296875 C 4.847656 -5.492188 4.554688 -5.59375 4.203125 -5.59375 C 3.804688 -5.59375 3.488281 -5.488281 3.25 -5.28125 C 3.019531 -5.070312 2.894531 -4.800781 2.875 -4.46875 Z M 2.875 -4.46875 "/></g></g></g><g fill="#ffffff" fill-opacity="1"><g transform="translate(73.314287, 18.532586)"><g><path d="M 0.8125 0 L 0.8125 -6.953125 L 3.203125 -6.953125 L 3.203125 -6.21875 L 3.234375 -6.21875 C 3.859375 -6.84375 4.523438 -7.15625 5.234375 -7.15625 C 5.578125 -7.15625 5.914062 -7.109375 6.25 -7.015625 C 6.59375 -6.921875 6.914062 -6.78125 7.21875 -6.59375 C 7.53125 -6.40625 7.785156 -6.132812 7.984375 -5.78125 C 8.179688 -5.4375 8.28125 -5.035156 8.28125 -4.578125 L 8.28125 0 L 5.875 0 L 5.875 -3.921875 C 5.875 -4.285156 5.757812 -4.601562 5.53125 -4.875 C 5.300781 -5.144531 5.003906 -5.28125 4.640625 -5.28125 C 4.273438 -5.28125 3.941406 -5.140625 3.640625 -4.859375 C 3.347656 -4.578125 3.203125 -4.265625 3.203125 -3.921875 L 3.203125 0 Z M 0.8125 0 "/></g></g></g></svg>